<svg width="1000" height="1000" viewBox="0 0 1000 1000" fill="none" xmlns="http://www.w3.org/2000/svg">
<path d="M547.542 237.274L500.041 155L456.451 230.5" stroke="#FEFDF1" stroke-width="15" stroke-linecap="round" stroke-linejoin="round"/>
<path d="M636.584 391.5L668.627 447" stroke="#FEFDF1" stroke-width="15" stroke-linecap="round" stroke-linejoin="round"/>
<path d="M757.539 601L796.222 668" stroke="#FEFDF1" stroke-width="15" stroke-linecap="round" stroke-linejoin="round"/>
<path d="M818.738 707L842.698 748.5" stroke="#FEFDF1" stroke-width="15" stroke-linecap="round" stroke-linejoin="round"/>
<path d="M894.083 837.5H789.312" stroke="#FEFDF1" stroke-width="15" stroke-linecap="round" stroke-linejoin="round"/>
<path d="M684.542 837.5H629.042" stroke="#FEFDF1" stroke-width="15" stroke-linecap="round" stroke-linejoin="round"/>
<path d="M390.042 837.5H333.042" stroke="#FEFDF1" stroke-width="15" stroke-linecap="round" stroke-linejoin="round"/>
<path d="M225.542 837.5H106" stroke="#FEFDF1" stroke-width="15" stroke-linecap="round" stroke-linejoin="round"/>
<path d="M173.55 720.5L216.562 646" stroke="#FEFDF1" stroke-width="15" stroke-linecap="round" stroke-linejoin="round"/>
<path d="M242.543 601L283.824 529.5" stroke="#FEFDF1" stroke-width="15" stroke-linecap="round" stroke-linejoin="round"/>
<path d="M380.818 361.5L429.027 278" stroke="#FEFDF1" stroke-width="15" stroke-linecap="round" stroke-linejoin="round"/>
<circle cx="576.542" cy="284.5" r="12" fill="#FEFDF1" stroke="#FEFDF1"/>
<circle cx="609.542" cy="342.5" r="12" fill="#FEFDF1" stroke="#FEFDF1"/>
<circle cx="696.542" cy="493.5" r="12" fill="#FEFDF1" stroke="#FEFDF1"/>
<circle cx="729.542" cy="551.5" r="12" fill="#FEFDF1" stroke="#FEFDF1"/>
<circle cx="864.542" cy="780.5" r="12" fill="#FEFDF1" stroke="#FEFDF1"/>
<circle cx="736.542" cy="833.5" r="12" fill="#FEFDF1" stroke="#FEFDF1"/>
<circle cx="567.542" cy="833.5" r="12" fill="#FEFDF1" stroke="#FEFDF1"/>
<circle cx="508.542" cy="833.5" r="12" fill="#FEFDF1" stroke="#FEFDF1"/>
<circle cx="449.542" cy="833.5" r="12" fill="#FEFDF1" stroke="#FEFDF1"/>
<circle cx="281.542" cy="833.5" r="12" fill="#FEFDF1" stroke="#FEFDF1"/>
<circle cx="142.542" cy="778.5" r="12" fill="#FEFDF1" stroke="#FEFDF1"/>
<circle cx="315.542" cy="478.5" r="12" fill="#FEFDF1" stroke="#FEFDF1"/>
<circle cx="350.542" cy="417.5" r="12" fill="#FEFDF1" stroke="#FEFDF1"/>
</svg>
