<svg width="1000" height="1000" viewBox="0 0 1000 1000" fill="none" xmlns="http://www.w3.org/2000/svg">
<rect width="1000" height="1000" fill="black"/>
<g filter="url(#filter0_d_17_93)">
<path d="M547.542 237.274L500.041 155L456.451 230.5" stroke="#FEFDF1" stroke-width="15" stroke-linecap="round" stroke-linejoin="round"/>
<path d="M636.584 391.5L668.627 447" stroke="#FEFDF1" stroke-width="15" stroke-linecap="round" stroke-linejoin="round"/>
<path d="M757.539 601L796.222 668" stroke="#FEFDF1" stroke-width="15" stroke-linecap="round" stroke-linejoin="round"/>
<path d="M818.738 707L842.698 748.5" stroke="#FEFDF1" stroke-width="15" stroke-linecap="round" stroke-linejoin="round"/>
<path d="M894.083 837.5H789.312" stroke="#FEFDF1" stroke-width="15" stroke-linecap="round" stroke-linejoin="round"/>
<path d="M684.542 837.5H629.042" stroke="#FEFDF1" stroke-width="15" stroke-linecap="round" stroke-linejoin="round"/>
<path d="M390.042 837.5H333.042" stroke="#FEFDF1" stroke-width="15" stroke-linecap="round" stroke-linejoin="round"/>
<path d="M225.542 837.5H106" stroke="#FEFDF1" stroke-width="15" stroke-linecap="round" stroke-linejoin="round"/>
<path d="M173.55 720.5L216.562 646" stroke="#FEFDF1" stroke-width="15" stroke-linecap="round" stroke-linejoin="round"/>
<path d="M242.543 601L283.824 529.5" stroke="#FEFDF1" stroke-width="15" stroke-linecap="round" stroke-linejoin="round"/>
<path d="M380.818 361.5L429.027 278" stroke="#FEFDF1" stroke-width="15" stroke-linecap="round" stroke-linejoin="round"/>
<circle cx="576.542" cy="284.5" r="12" fill="#FEFDF1" stroke="#FEFDF1"/>
<circle cx="609.542" cy="342.5" r="12" fill="#FEFDF1" stroke="#FEFDF1"/>
<circle cx="696.542" cy="493.5" r="12" fill="#FEFDF1" stroke="#FEFDF1"/>
<circle cx="729.542" cy="551.5" r="12" fill="#FEFDF1" stroke="#FEFDF1"/>
<circle cx="864.542" cy="780.5" r="12" fill="#FEFDF1" stroke="#FEFDF1"/>
<circle cx="736.542" cy="833.5" r="12" fill="#FEFDF1" stroke="#FEFDF1"/>
<circle cx="567.542" cy="833.5" r="12" fill="#FEFDF1" stroke="#FEFDF1"/>
<circle cx="508.542" cy="833.5" r="12" fill="#FEFDF1" stroke="#FEFDF1"/>
<circle cx="449.542" cy="833.5" r="12" fill="#FEFDF1" stroke="#FEFDF1"/>
<circle cx="281.542" cy="833.5" r="12" fill="#FEFDF1" stroke="#FEFDF1"/>
<circle cx="142.542" cy="778.5" r="12" fill="#FEFDF1" stroke="#FEFDF1"/>
<circle cx="315.542" cy="478.5" r="12" fill="#FEFDF1" stroke="#FEFDF1"/>
<circle cx="350.542" cy="417.5" r="12" fill="#FEFDF1" stroke="#FEFDF1"/>
</g>
<defs>
<filter id="filter0_d_17_93" x="68.5" y="117.5" width="863.083" height="758.5" filterUnits="userSpaceOnUse" color-interpolation-filters="sRGB">
<feFlood flood-opacity="0" result="BackgroundImageFix"/>
<feColorMatrix in="SourceAlpha" type="matrix" values="0 0 0 0 0 0 0 0 0 0 0 0 0 0 0 0 0 0 127 0" result="hardAlpha"/>
<feOffset/>
<feGaussianBlur stdDeviation="15"/>
<feComposite in2="hardAlpha" operator="out"/>
<feColorMatrix type="matrix" values="0 0 0 0 0.787635 0 0 0 0 0.525912 0 0 0 0 0.18154 0 0 0 1 0"/>
<feBlend mode="normal" in2="BackgroundImageFix" result="effect1_dropShadow_17_93"/>
<feBlend mode="normal" in="SourceGraphic" in2="effect1_dropShadow_17_93" result="shape"/>
</filter>
</defs>
</svg>
