<svg width="24" height="24" viewBox="0 0 24 24" fill="none" xmlns="http://www.w3.org/2000/svg">
  <g stroke="none">
    <path d="M21.6 12.2c0-.7-.06-1.4-.18-2.05H12v3.88h5.4a4.6 4.6 0 0 1-2 3.03v2.5h3.24c1.9-1.75 3-4.32 3-7.36z" fill="#4285F4"/>
    <path d="M12 22c2.7 0 4.96-.9 6.62-2.43l-3.24-2.5a6.04 6.04 0 0 1-9.05-3.16H2.96v2.58A10 10 0 0 0 12 22z" fill="#34A853"/>
    <path d="M6.34 13.9a6 6 0 0 1 0-3.83V7.5H2.96a10 10 0 0 0 0 9l3.38-2.6z" fill="#FBBC04"/>
    <path d="M12 6.04c1.47-.02 2.88.52 3.96 1.53l2.86-2.86A10 10 0 0 0 2.96 7.5l3.38 2.58A6 6 0 0 1 12 6.04z" fill="#EA4335"/>
  </g>
</svg>
